<mxfile host="app.diagrams.net" modified="2023-11-08T11:00:20.899Z" agent="Mozilla/5.0 (Windows NT 10.0; Win64; x64) AppleWebKit/537.36 (KHTML, like Gecko) Chrome/118.0.0.0 Safari/537.36 Edg/118.0.2088.76" etag="BAgy_-eAG9DNSEP75ZSU" version="22.0.8" type="github">
  <diagram name="Page-1" id="s6fkva6_rw7zY-F-AaNF">
    <mxGraphModel dx="815" dy="434" grid="1" gridSize="10" guides="1" tooltips="1" connect="1" arrows="1" fold="1" page="1" pageScale="1" pageWidth="827" pageHeight="1169" math="0" shadow="0">
      <root>
        <mxCell id="0" />
        <mxCell id="1" parent="0" />
        <mxCell id="VqZTAAArKosiI1yCozY4-6" value="Team" style="rounded=1;whiteSpace=wrap;html=1;verticalAlign=top;fillColor=#AED0FC;strokeColor=none;" vertex="1" parent="1">
          <mxGeometry x="530" y="310" width="80" height="240" as="geometry" />
        </mxCell>
        <mxCell id="VqZTAAArKosiI1yCozY4-5" value="Team" style="rounded=1;whiteSpace=wrap;html=1;verticalAlign=top;fillColor=#AED0FC;strokeColor=none;" vertex="1" parent="1">
          <mxGeometry x="320" y="310" width="150" height="240" as="geometry" />
        </mxCell>
        <mxCell id="VqZTAAArKosiI1yCozY4-68" value="" style="rounded=1;whiteSpace=wrap;html=1;fillColor=#dae8fc;strokeColor=none;" vertex="1" parent="1">
          <mxGeometry x="342" y="400" width="39" height="140" as="geometry" />
        </mxCell>
        <mxCell id="VqZTAAArKosiI1yCozY4-16" value="Stories" style="rounded=1;whiteSpace=wrap;html=1;arcSize=50;strokeColor=none;fillColor=#dae8fc;" vertex="1" parent="1">
          <mxGeometry x="331" y="384" width="60" height="20" as="geometry" />
        </mxCell>
        <mxCell id="VqZTAAArKosiI1yCozY4-44" style="edgeStyle=orthogonalEdgeStyle;rounded=0;orthogonalLoop=1;jettySize=auto;html=1;entryX=0;entryY=0.5;entryDx=0;entryDy=0;" edge="1" parent="1" source="VqZTAAArKosiI1yCozY4-1" target="VqZTAAArKosiI1yCozY4-22">
          <mxGeometry relative="1" as="geometry" />
        </mxCell>
        <mxCell id="VqZTAAArKosiI1yCozY4-45" style="edgeStyle=orthogonalEdgeStyle;rounded=0;orthogonalLoop=1;jettySize=auto;html=1;entryX=0;entryY=0.5;entryDx=0;entryDy=0;" edge="1" parent="1" source="VqZTAAArKosiI1yCozY4-1" target="VqZTAAArKosiI1yCozY4-3">
          <mxGeometry relative="1" as="geometry" />
        </mxCell>
        <mxCell id="VqZTAAArKosiI1yCozY4-1" value="Milestone" style="rounded=1;whiteSpace=wrap;html=1;fillColor=#428CFC;strokeColor=#6c8ebf;" vertex="1" parent="1">
          <mxGeometry x="40" y="446.64" width="120" height="40" as="geometry" />
        </mxCell>
        <mxCell id="VqZTAAArKosiI1yCozY4-8" style="edgeStyle=orthogonalEdgeStyle;rounded=0;orthogonalLoop=1;jettySize=auto;html=1;entryX=0.5;entryY=0;entryDx=0;entryDy=0;" edge="1" parent="1" source="VqZTAAArKosiI1yCozY4-2" target="VqZTAAArKosiI1yCozY4-5">
          <mxGeometry relative="1" as="geometry" />
        </mxCell>
        <mxCell id="VqZTAAArKosiI1yCozY4-9" style="edgeStyle=orthogonalEdgeStyle;rounded=0;orthogonalLoop=1;jettySize=auto;html=1;" edge="1" parent="1" source="VqZTAAArKosiI1yCozY4-2" target="VqZTAAArKosiI1yCozY4-6">
          <mxGeometry relative="1" as="geometry" />
        </mxCell>
        <mxCell id="VqZTAAArKosiI1yCozY4-2" value="Organisation" style="rounded=1;whiteSpace=wrap;html=1;" vertex="1" parent="1">
          <mxGeometry x="390" y="150" width="170" height="40" as="geometry" />
        </mxCell>
        <mxCell id="VqZTAAArKosiI1yCozY4-66" style="edgeStyle=orthogonalEdgeStyle;rounded=0;orthogonalLoop=1;jettySize=auto;html=1;" edge="1" parent="1" source="VqZTAAArKosiI1yCozY4-3" target="VqZTAAArKosiI1yCozY4-65">
          <mxGeometry relative="1" as="geometry" />
        </mxCell>
        <mxCell id="VqZTAAArKosiI1yCozY4-3" value="Epic" style="rounded=1;whiteSpace=wrap;html=1;" vertex="1" parent="1">
          <mxGeometry x="220" y="497" width="60" height="29" as="geometry" />
        </mxCell>
        <mxCell id="VqZTAAArKosiI1yCozY4-90" style="edgeStyle=orthogonalEdgeStyle;rounded=0;orthogonalLoop=1;jettySize=auto;html=1;entryX=0.5;entryY=0;entryDx=0;entryDy=0;endArrow=none;endFill=0;" edge="1" parent="1" source="VqZTAAArKosiI1yCozY4-12" target="VqZTAAArKosiI1yCozY4-16">
          <mxGeometry relative="1" as="geometry">
            <Array as="points">
              <mxPoint x="361" y="380" />
              <mxPoint x="361" y="380" />
            </Array>
          </mxGeometry>
        </mxCell>
        <mxCell id="VqZTAAArKosiI1yCozY4-12" value="Project" style="rounded=1;whiteSpace=wrap;html=1;fillColor=#dae8fc;strokeColor=none;" vertex="1" parent="1">
          <mxGeometry x="331" y="340" width="60" height="30" as="geometry" />
        </mxCell>
        <mxCell id="VqZTAAArKosiI1yCozY4-19" value="" style="sketch=0;pointerEvents=1;shadow=0;dashed=0;html=1;strokeColor=none;labelPosition=center;verticalLabelPosition=bottom;verticalAlign=top;align=center;fillColor=#00188D;shape=mxgraph.azure.file" vertex="1" parent="1">
          <mxGeometry x="348.95" y="421" width="24.1" height="25.64" as="geometry" />
        </mxCell>
        <mxCell id="VqZTAAArKosiI1yCozY4-48" style="edgeStyle=orthogonalEdgeStyle;rounded=0;orthogonalLoop=1;jettySize=auto;html=1;" edge="1" parent="1" source="VqZTAAArKosiI1yCozY4-22" target="VqZTAAArKosiI1yCozY4-46">
          <mxGeometry relative="1" as="geometry" />
        </mxCell>
        <mxCell id="VqZTAAArKosiI1yCozY4-22" value="Epic" style="rounded=1;whiteSpace=wrap;html=1;" vertex="1" parent="1">
          <mxGeometry x="221" y="421" width="60" height="29" as="geometry" />
        </mxCell>
        <mxCell id="VqZTAAArKosiI1yCozY4-51" value="" style="sketch=0;pointerEvents=1;shadow=0;dashed=0;html=1;strokeColor=none;labelPosition=center;verticalLabelPosition=bottom;verticalAlign=top;align=center;fillColor=#00188D;shape=mxgraph.azure.file" vertex="1" parent="1">
          <mxGeometry x="348.95" y="461" width="24.1" height="25.64" as="geometry" />
        </mxCell>
        <mxCell id="VqZTAAArKosiI1yCozY4-53" value="" style="sketch=0;pointerEvents=1;shadow=0;dashed=0;html=1;strokeColor=none;labelPosition=center;verticalLabelPosition=bottom;verticalAlign=top;align=center;fillColor=#00188D;shape=mxgraph.azure.file" vertex="1" parent="1">
          <mxGeometry x="348.95" y="500" width="24.1" height="25.64" as="geometry" />
        </mxCell>
        <mxCell id="VqZTAAArKosiI1yCozY4-75" value="" style="rounded=1;whiteSpace=wrap;html=1;fillColor=#dae8fc;strokeColor=none;" vertex="1" parent="1">
          <mxGeometry x="411" y="400" width="39" height="140" as="geometry" />
        </mxCell>
        <mxCell id="VqZTAAArKosiI1yCozY4-76" value="Stories" style="rounded=1;whiteSpace=wrap;html=1;arcSize=50;strokeColor=none;fillColor=#dae8fc;" vertex="1" parent="1">
          <mxGeometry x="400" y="384" width="60" height="20" as="geometry" />
        </mxCell>
        <mxCell id="VqZTAAArKosiI1yCozY4-91" style="edgeStyle=orthogonalEdgeStyle;rounded=0;orthogonalLoop=1;jettySize=auto;html=1;entryX=0.5;entryY=0;entryDx=0;entryDy=0;endArrow=none;endFill=0;" edge="1" parent="1" source="VqZTAAArKosiI1yCozY4-77" target="VqZTAAArKosiI1yCozY4-76">
          <mxGeometry relative="1" as="geometry">
            <Array as="points">
              <mxPoint x="430" y="380" />
              <mxPoint x="430" y="380" />
            </Array>
          </mxGeometry>
        </mxCell>
        <mxCell id="VqZTAAArKosiI1yCozY4-77" value="Project" style="rounded=1;whiteSpace=wrap;html=1;fillColor=#dae8fc;strokeColor=none;" vertex="1" parent="1">
          <mxGeometry x="400" y="340" width="60" height="30" as="geometry" />
        </mxCell>
        <mxCell id="VqZTAAArKosiI1yCozY4-78" value="" style="sketch=0;pointerEvents=1;shadow=0;dashed=0;html=1;strokeColor=none;labelPosition=center;verticalLabelPosition=bottom;verticalAlign=top;align=center;fillColor=#00188D;shape=mxgraph.azure.file" vertex="1" parent="1">
          <mxGeometry x="417.95" y="421" width="24.1" height="25.64" as="geometry" />
        </mxCell>
        <mxCell id="VqZTAAArKosiI1yCozY4-79" value="" style="sketch=0;pointerEvents=1;shadow=0;dashed=0;html=1;strokeColor=none;labelPosition=center;verticalLabelPosition=bottom;verticalAlign=top;align=center;fillColor=#00188D;shape=mxgraph.azure.file" vertex="1" parent="1">
          <mxGeometry x="417.95" y="461" width="24.1" height="25.64" as="geometry" />
        </mxCell>
        <mxCell id="VqZTAAArKosiI1yCozY4-80" value="" style="sketch=0;pointerEvents=1;shadow=0;dashed=0;html=1;strokeColor=none;labelPosition=center;verticalLabelPosition=bottom;verticalAlign=top;align=center;fillColor=#00188D;shape=mxgraph.azure.file" vertex="1" parent="1">
          <mxGeometry x="417.95" y="500" width="24.1" height="25.64" as="geometry" />
        </mxCell>
        <mxCell id="VqZTAAArKosiI1yCozY4-81" value="" style="rounded=1;whiteSpace=wrap;html=1;fillColor=#dae8fc;strokeColor=none;" vertex="1" parent="1">
          <mxGeometry x="551" y="400" width="39" height="140" as="geometry" />
        </mxCell>
        <mxCell id="VqZTAAArKosiI1yCozY4-82" value="Stories" style="rounded=1;whiteSpace=wrap;html=1;arcSize=50;strokeColor=none;fillColor=#dae8fc;" vertex="1" parent="1">
          <mxGeometry x="540" y="384" width="60" height="20" as="geometry" />
        </mxCell>
        <mxCell id="VqZTAAArKosiI1yCozY4-92" style="edgeStyle=orthogonalEdgeStyle;rounded=0;orthogonalLoop=1;jettySize=auto;html=1;entryX=0.5;entryY=0;entryDx=0;entryDy=0;endArrow=none;endFill=0;" edge="1" parent="1" source="VqZTAAArKosiI1yCozY4-83" target="VqZTAAArKosiI1yCozY4-82">
          <mxGeometry relative="1" as="geometry">
            <Array as="points">
              <mxPoint x="570" y="380" />
              <mxPoint x="570" y="380" />
            </Array>
          </mxGeometry>
        </mxCell>
        <mxCell id="VqZTAAArKosiI1yCozY4-83" value="Project" style="rounded=1;whiteSpace=wrap;html=1;fillColor=#dae8fc;strokeColor=none;" vertex="1" parent="1">
          <mxGeometry x="540" y="340" width="60" height="30" as="geometry" />
        </mxCell>
        <mxCell id="VqZTAAArKosiI1yCozY4-84" value="" style="sketch=0;pointerEvents=1;shadow=0;dashed=0;html=1;strokeColor=none;labelPosition=center;verticalLabelPosition=bottom;verticalAlign=top;align=center;fillColor=#00188D;shape=mxgraph.azure.file" vertex="1" parent="1">
          <mxGeometry x="557.95" y="421" width="24.1" height="25.64" as="geometry" />
        </mxCell>
        <mxCell id="VqZTAAArKosiI1yCozY4-85" value="" style="sketch=0;pointerEvents=1;shadow=0;dashed=0;html=1;strokeColor=none;labelPosition=center;verticalLabelPosition=bottom;verticalAlign=top;align=center;fillColor=#00188D;shape=mxgraph.azure.file" vertex="1" parent="1">
          <mxGeometry x="557.95" y="461" width="24.1" height="25.64" as="geometry" />
        </mxCell>
        <mxCell id="VqZTAAArKosiI1yCozY4-86" value="" style="sketch=0;pointerEvents=1;shadow=0;dashed=0;html=1;strokeColor=none;labelPosition=center;verticalLabelPosition=bottom;verticalAlign=top;align=center;fillColor=#00188D;shape=mxgraph.azure.file" vertex="1" parent="1">
          <mxGeometry x="557.95" y="500" width="24.1" height="25.64" as="geometry" />
        </mxCell>
        <mxCell id="VqZTAAArKosiI1yCozY4-65" value="" style="rounded=1;whiteSpace=wrap;html=1;textOpacity=10;fillColor=#92ABFC;strokeColor=none;fontColor=none;noLabel=1;opacity=70;" vertex="1" parent="1">
          <mxGeometry x="304" y="491.5" width="326" height="40" as="geometry" />
        </mxCell>
        <mxCell id="VqZTAAArKosiI1yCozY4-46" value="" style="rounded=1;whiteSpace=wrap;html=1;textOpacity=10;fillColor=#92ABFC;strokeColor=none;fontColor=none;noLabel=1;opacity=70;" vertex="1" parent="1">
          <mxGeometry x="304" y="414" width="326" height="40" as="geometry" />
        </mxCell>
      </root>
    </mxGraphModel>
  </diagram>
</mxfile>
